<svg width="1666" height="485" viewBox="0 0 1666 485" fill="none" xmlns="http://www.w3.org/2000/svg">
<path d="M12.2781 279H3.0451L29.7496 206.273H38.8406L65.5451 279H56.3121L34.5792 217.778H34.011L12.2781 279ZM15.6871 250.591H52.9031V258.403H15.6871V250.591ZM99.8757 256.273H109.535L117.631 266.926L119.762 269.767L131.836 285.818H122.177L114.222 275.165L112.234 272.466L99.8757 256.273ZM134.819 242.636C134.819 250.307 133.434 256.936 130.664 262.523C127.894 268.11 124.094 272.419 119.265 275.449C114.435 278.479 108.919 279.994 102.717 279.994C96.514 279.994 90.9979 278.479 86.1683 275.449C81.3388 272.419 77.5391 268.11 74.7692 262.523C71.9993 256.936 70.6143 250.307 70.6143 242.636C70.6143 234.966 71.9993 228.337 74.7692 222.75C77.5391 217.163 81.3388 212.854 86.1683 209.824C90.9979 206.794 96.514 205.278 102.717 205.278C108.919 205.278 114.435 206.794 119.265 209.824C124.094 212.854 127.894 217.163 130.664 222.75C133.434 228.337 134.819 234.966 134.819 242.636ZM126.296 242.636C126.296 236.339 125.243 231.024 123.136 226.692C121.052 222.359 118.223 219.08 114.648 216.855C111.097 214.63 107.12 213.517 102.717 213.517C98.3132 213.517 94.3241 214.63 90.7493 216.855C87.1982 219.08 84.3691 222.359 82.2621 226.692C80.1787 231.024 79.1371 236.339 79.1371 242.636C79.1371 248.934 80.1787 254.249 82.2621 258.581C84.3691 262.913 87.1982 266.192 90.7493 268.418C94.3241 270.643 98.3132 271.756 102.717 271.756C107.12 271.756 111.097 270.643 114.648 268.418C118.223 266.192 121.052 262.913 123.136 258.581C125.243 254.249 126.296 248.934 126.296 242.636ZM149.627 279V206.273H175.053C180.12 206.273 184.298 207.149 187.589 208.901C190.88 210.629 193.33 212.961 194.94 215.896C196.549 218.808 197.354 222.04 197.354 225.591C197.354 228.716 196.798 231.296 195.685 233.332C194.596 235.368 193.152 236.978 191.353 238.162C189.577 239.346 187.648 240.222 185.565 240.79V241.5C187.79 241.642 190.027 242.423 192.276 243.844C194.525 245.264 196.407 247.3 197.923 249.952C199.438 252.603 200.195 255.847 200.195 259.682C200.195 263.328 199.367 266.607 197.71 269.518C196.052 272.43 193.436 274.739 189.862 276.443C186.287 278.148 181.635 279 175.906 279H149.627ZM158.434 271.188H175.906C181.658 271.188 185.742 270.075 188.157 267.849C190.595 265.6 191.815 262.878 191.815 259.682C191.815 257.22 191.187 254.947 189.933 252.864C188.678 250.757 186.89 249.076 184.57 247.821C182.25 246.543 179.504 245.903 176.332 245.903H158.434V271.188ZM158.434 238.233H174.769C177.421 238.233 179.812 237.712 181.942 236.67C184.097 235.629 185.801 234.161 187.056 232.267C188.335 230.373 188.974 228.148 188.974 225.591C188.974 222.395 187.861 219.684 185.636 217.459C183.41 215.21 179.883 214.085 175.053 214.085H158.434V238.233ZM214.666 279V206.273H239.24C244.922 206.273 249.586 207.243 253.232 209.185C256.877 211.102 259.576 213.742 261.328 217.104C263.08 220.465 263.956 224.289 263.956 228.574C263.956 232.859 263.08 236.659 261.328 239.973C259.576 243.287 256.889 245.892 253.267 247.786C249.645 249.656 245.017 250.591 239.382 250.591H219.496V242.636H239.098C242.981 242.636 246.106 242.068 248.473 240.932C250.864 239.795 252.592 238.186 253.658 236.102C254.747 233.995 255.291 231.486 255.291 228.574C255.291 225.662 254.747 223.117 253.658 220.939C252.569 218.761 250.829 217.08 248.438 215.896C246.046 214.689 242.886 214.085 238.956 214.085H223.473V279H214.666ZM248.899 246.33L266.797 279H256.57L238.956 246.33H248.899ZM337.154 229H328.347C327.826 226.467 326.915 224.241 325.613 222.324C324.334 220.406 322.772 218.796 320.925 217.494C319.102 216.169 317.078 215.174 314.853 214.511C312.627 213.848 310.307 213.517 307.892 213.517C303.489 213.517 299.5 214.63 295.925 216.855C292.374 219.08 289.545 222.359 287.438 226.692C285.355 231.024 284.313 236.339 284.313 242.636C284.313 248.934 285.355 254.249 287.438 258.581C289.545 262.913 292.374 266.192 295.925 268.418C299.5 270.643 303.489 271.756 307.892 271.756C310.307 271.756 312.627 271.424 314.853 270.761C317.078 270.098 319.102 269.116 320.925 267.814C322.772 266.488 324.334 264.866 325.613 262.949C326.915 261.008 327.826 258.782 328.347 256.273H337.154C336.491 259.99 335.284 263.316 333.532 266.251C331.78 269.187 329.602 271.685 326.998 273.744C324.393 275.78 321.47 277.331 318.226 278.396C315.007 279.462 311.562 279.994 307.892 279.994C301.69 279.994 296.174 278.479 291.344 275.449C286.515 272.419 282.715 268.11 279.945 262.523C277.175 256.936 275.79 250.307 275.79 242.636C275.79 234.966 277.175 228.337 279.945 222.75C282.715 217.163 286.515 212.854 291.344 209.824C296.174 206.794 301.69 205.278 307.892 205.278C311.562 205.278 315.007 205.811 318.226 206.876C321.47 207.942 324.393 209.504 326.998 211.564C329.602 213.6 331.78 216.086 333.532 219.021C335.284 221.933 336.491 225.259 337.154 229ZM391.158 224.455C390.732 220.856 389.003 218.062 385.973 216.074C382.943 214.085 379.226 213.091 374.822 213.091C371.603 213.091 368.786 213.612 366.371 214.653C363.98 215.695 362.109 217.127 360.76 218.95C359.434 220.773 358.771 222.845 358.771 225.165C358.771 227.106 359.233 228.775 360.156 230.172C361.103 231.545 362.311 232.693 363.778 233.616C365.246 234.516 366.785 235.262 368.395 235.854C370.005 236.422 371.484 236.884 372.834 237.239L380.22 239.227C382.114 239.724 384.221 240.411 386.541 241.287C388.885 242.163 391.122 243.358 393.253 244.874C395.407 246.365 397.183 248.283 398.58 250.626C399.976 252.97 400.675 255.847 400.675 259.256C400.675 263.186 399.645 266.737 397.585 269.909C395.549 273.081 392.566 275.603 388.636 277.473C384.73 279.343 379.983 280.278 374.396 280.278C369.188 280.278 364.678 279.438 360.866 277.757C357.079 276.076 354.096 273.732 351.918 270.726C349.763 267.719 348.544 264.227 348.26 260.25H357.351C357.588 262.996 358.511 265.269 360.121 267.068C361.754 268.844 363.814 270.17 366.3 271.045C368.809 271.898 371.508 272.324 374.396 272.324C377.758 272.324 380.777 271.779 383.452 270.69C386.127 269.578 388.246 268.039 389.808 266.074C391.371 264.085 392.152 261.765 392.152 259.114C392.152 256.699 391.477 254.734 390.128 253.219C388.778 251.704 387.003 250.473 384.801 249.526C382.599 248.579 380.22 247.75 377.663 247.04L368.714 244.483C363.033 242.849 358.535 240.518 355.22 237.487C351.906 234.457 350.249 230.491 350.249 225.591C350.249 221.519 351.349 217.968 353.551 214.938C355.777 211.884 358.759 209.516 362.5 207.835C366.264 206.131 370.466 205.278 375.107 205.278C379.794 205.278 383.961 206.119 387.607 207.8C391.252 209.457 394.141 211.73 396.271 214.618C398.426 217.506 399.562 220.785 399.68 224.455H391.158ZM437.598 279H415.154V206.273H438.592C445.647 206.273 451.684 207.729 456.703 210.641C461.722 213.529 465.569 217.684 468.244 223.105C470.919 228.503 472.257 234.966 472.257 242.494C472.257 250.07 470.907 256.592 468.208 262.061C465.51 267.506 461.58 271.696 456.419 274.632C451.258 277.544 444.984 279 437.598 279ZM423.961 271.188H437.029C443.043 271.188 448.026 270.027 451.98 267.707C455.933 265.387 458.881 262.085 460.822 257.8C462.763 253.515 463.734 248.413 463.734 242.494C463.734 236.623 462.775 231.569 460.858 227.331C458.94 223.07 456.075 219.803 452.264 217.53C448.452 215.233 443.706 214.085 438.024 214.085H423.961V271.188ZM480.025 214.085V206.273H534.57V214.085H511.701V279H502.894V214.085H480.025ZM548.162 279V206.273H592.054V214.085H556.969V238.659H589.782V246.472H556.969V271.188H592.623V279H548.162ZM655.655 206.273H664.462V254.426C664.462 259.398 663.29 263.837 660.946 267.743C658.626 271.625 655.347 274.691 651.11 276.94C646.872 279.166 641.9 280.278 636.195 280.278C630.489 280.278 625.518 279.166 621.28 276.94C617.042 274.691 613.752 271.625 611.408 267.743C609.088 263.837 607.928 259.398 607.928 254.426V206.273H616.735V253.716C616.735 257.267 617.516 260.428 619.078 263.197C620.641 265.944 622.866 268.11 625.755 269.696C628.667 271.259 632.147 272.04 636.195 272.04C640.243 272.04 643.723 271.259 646.635 269.696C649.547 268.11 651.773 265.944 653.311 263.197C654.874 260.428 655.655 257.267 655.655 253.716V206.273ZM682.049 279V206.273H725.657V214.085H690.856V238.659H722.39V246.472H690.856V279H682.049ZM743.723 206.273L765.314 267.494H766.167L787.757 206.273H796.99L770.286 279H761.195L734.49 206.273H743.723Z" fill="#006CA9"/>
<path d="M12.2781 461H3.0451L29.7496 388.273H38.8406L65.5451 461H56.3121L34.5792 399.778H34.011L12.2781 461ZM15.6871 432.591H52.9031V440.403H15.6871V432.591ZM99.8757 438.273H109.535L117.631 448.926L119.762 451.767L131.836 467.818H122.177L114.222 457.165L112.234 454.466L99.8757 438.273ZM134.819 424.636C134.819 432.307 133.434 438.936 130.664 444.523C127.894 450.11 124.094 454.419 119.265 457.449C114.435 460.479 108.919 461.994 102.717 461.994C96.514 461.994 90.9979 460.479 86.1683 457.449C81.3388 454.419 77.5391 450.11 74.7692 444.523C71.9993 438.936 70.6143 432.307 70.6143 424.636C70.6143 416.966 71.9993 410.337 74.7692 404.75C77.5391 399.163 81.3388 394.854 86.1683 391.824C90.9979 388.794 96.514 387.278 102.717 387.278C108.919 387.278 114.435 388.794 119.265 391.824C124.094 394.854 127.894 399.163 130.664 404.75C133.434 410.337 134.819 416.966 134.819 424.636ZM126.296 424.636C126.296 418.339 125.243 413.024 123.136 408.692C121.052 404.359 118.223 401.08 114.648 398.855C111.097 396.63 107.12 395.517 102.717 395.517C98.3132 395.517 94.3241 396.63 90.7493 398.855C87.1982 401.08 84.3691 404.359 82.2621 408.692C80.1787 413.024 79.1371 418.339 79.1371 424.636C79.1371 430.934 80.1787 436.249 82.2621 440.581C84.3691 444.913 87.1982 448.192 90.7493 450.418C94.3241 452.643 98.3132 453.756 102.717 453.756C107.12 453.756 111.097 452.643 114.648 450.418C118.223 448.192 121.052 444.913 123.136 440.581C125.243 436.249 126.296 430.934 126.296 424.636ZM149.627 461V388.273H175.053C180.12 388.273 184.298 389.149 187.589 390.901C190.88 392.629 193.33 394.961 194.94 397.896C196.549 400.808 197.354 404.04 197.354 407.591C197.354 410.716 196.798 413.296 195.685 415.332C194.596 417.368 193.152 418.978 191.353 420.162C189.577 421.346 187.648 422.222 185.565 422.79V423.5C187.79 423.642 190.027 424.423 192.276 425.844C194.525 427.264 196.407 429.3 197.923 431.952C199.438 434.603 200.195 437.847 200.195 441.682C200.195 445.328 199.367 448.607 197.71 451.518C196.052 454.43 193.436 456.739 189.862 458.443C186.287 460.148 181.635 461 175.906 461H149.627ZM158.434 453.188H175.906C181.658 453.188 185.742 452.075 188.157 449.849C190.595 447.6 191.815 444.878 191.815 441.682C191.815 439.22 191.187 436.947 189.933 434.864C188.678 432.757 186.89 431.076 184.57 429.821C182.25 428.543 179.504 427.903 176.332 427.903H158.434V453.188ZM158.434 420.233H174.769C177.421 420.233 179.812 419.712 181.942 418.67C184.097 417.629 185.801 416.161 187.056 414.267C188.335 412.373 188.974 410.148 188.974 407.591C188.974 404.395 187.861 401.684 185.636 399.459C183.41 397.21 179.883 396.085 175.053 396.085H158.434V420.233ZM214.666 461V388.273H239.24C244.922 388.273 249.586 389.243 253.232 391.185C256.877 393.102 259.576 395.742 261.328 399.104C263.08 402.465 263.956 406.289 263.956 410.574C263.956 414.859 263.08 418.659 261.328 421.973C259.576 425.287 256.889 427.892 253.267 429.786C249.645 431.656 245.017 432.591 239.382 432.591H219.496V424.636H239.098C242.981 424.636 246.106 424.068 248.473 422.932C250.864 421.795 252.592 420.186 253.658 418.102C254.747 415.995 255.291 413.486 255.291 410.574C255.291 407.662 254.747 405.117 253.658 402.939C252.569 400.761 250.829 399.08 248.438 397.896C246.046 396.689 242.886 396.085 238.956 396.085H223.473V461H214.666ZM248.899 428.33L266.797 461H256.57L238.956 428.33H248.899ZM337.154 411H328.347C327.826 408.467 326.915 406.241 325.613 404.324C324.334 402.406 322.772 400.796 320.925 399.494C319.102 398.169 317.078 397.174 314.853 396.511C312.627 395.848 310.307 395.517 307.892 395.517C303.489 395.517 299.5 396.63 295.925 398.855C292.374 401.08 289.545 404.359 287.438 408.692C285.355 413.024 284.313 418.339 284.313 424.636C284.313 430.934 285.355 436.249 287.438 440.581C289.545 444.913 292.374 448.192 295.925 450.418C299.5 452.643 303.489 453.756 307.892 453.756C310.307 453.756 312.627 453.424 314.853 452.761C317.078 452.098 319.102 451.116 320.925 449.814C322.772 448.488 324.334 446.866 325.613 444.949C326.915 443.008 327.826 440.782 328.347 438.273H337.154C336.491 441.99 335.284 445.316 333.532 448.251C331.78 451.187 329.602 453.685 326.998 455.744C324.393 457.78 321.47 459.331 318.226 460.396C315.007 461.462 311.562 461.994 307.892 461.994C301.69 461.994 296.174 460.479 291.344 457.449C286.515 454.419 282.715 450.11 279.945 444.523C277.175 438.936 275.79 432.307 275.79 424.636C275.79 416.966 277.175 410.337 279.945 404.75C282.715 399.163 286.515 394.854 291.344 391.824C296.174 388.794 301.69 387.278 307.892 387.278C311.562 387.278 315.007 387.811 318.226 388.876C321.47 389.942 324.393 391.504 326.998 393.564C329.602 395.6 331.78 398.086 333.532 401.021C335.284 403.933 336.491 407.259 337.154 411ZM391.158 406.455C390.732 402.856 389.003 400.062 385.973 398.074C382.943 396.085 379.226 395.091 374.822 395.091C371.603 395.091 368.786 395.612 366.371 396.653C363.98 397.695 362.109 399.127 360.76 400.95C359.434 402.773 358.771 404.845 358.771 407.165C358.771 409.106 359.233 410.775 360.156 412.172C361.103 413.545 362.311 414.693 363.778 415.616C365.246 416.516 366.785 417.262 368.395 417.854C370.005 418.422 371.484 418.884 372.834 419.239L380.22 421.227C382.114 421.724 384.221 422.411 386.541 423.287C388.885 424.163 391.122 425.358 393.253 426.874C395.407 428.365 397.183 430.283 398.58 432.626C399.976 434.97 400.675 437.847 400.675 441.256C400.675 445.186 399.645 448.737 397.585 451.909C395.549 455.081 392.566 457.603 388.636 459.473C384.73 461.343 379.983 462.278 374.396 462.278C369.188 462.278 364.678 461.438 360.866 459.757C357.079 458.076 354.096 455.732 351.918 452.726C349.763 449.719 348.544 446.227 348.26 442.25H357.351C357.588 444.996 358.511 447.269 360.121 449.068C361.754 450.844 363.814 452.17 366.3 453.045C368.809 453.898 371.508 454.324 374.396 454.324C377.758 454.324 380.777 453.779 383.452 452.69C386.127 451.578 388.246 450.039 389.808 448.074C391.371 446.085 392.152 443.765 392.152 441.114C392.152 438.699 391.477 436.734 390.128 435.219C388.778 433.704 387.003 432.473 384.801 431.526C382.599 430.579 380.22 429.75 377.663 429.04L368.714 426.483C363.033 424.849 358.535 422.518 355.22 419.487C351.906 416.457 350.249 412.491 350.249 407.591C350.249 403.519 351.349 399.968 353.551 396.938C355.777 393.884 358.759 391.516 362.5 389.835C366.264 388.131 370.466 387.278 375.107 387.278C379.794 387.278 383.961 388.119 387.607 389.8C391.252 391.457 394.141 393.73 396.271 396.618C398.426 399.506 399.562 402.785 399.68 406.455H391.158ZM437.598 461H415.154V388.273H438.592C445.647 388.273 451.684 389.729 456.703 392.641C461.722 395.529 465.569 399.684 468.244 405.105C470.919 410.503 472.257 416.966 472.257 424.494C472.257 432.07 470.907 438.592 468.208 444.061C465.51 449.506 461.58 453.696 456.419 456.632C451.258 459.544 444.984 461 437.598 461ZM423.961 453.188H437.029C443.043 453.188 448.026 452.027 451.98 449.707C455.933 447.387 458.881 444.085 460.822 439.8C462.763 435.515 463.734 430.413 463.734 424.494C463.734 418.623 462.775 413.569 460.858 409.331C458.94 405.07 456.075 401.803 452.264 399.53C448.452 397.233 443.706 396.085 438.024 396.085H423.961V453.188ZM480.025 396.085V388.273H534.57V396.085H511.701V461H502.894V396.085H480.025ZM548.162 461V388.273H592.054V396.085H556.969V420.659H589.782V428.472H556.969V453.188H592.623V461H548.162ZM655.655 388.273H664.462V436.426C664.462 441.398 663.29 445.837 660.946 449.743C658.626 453.625 655.347 456.691 651.11 458.94C646.872 461.166 641.9 462.278 636.195 462.278C630.489 462.278 625.518 461.166 621.28 458.94C617.042 456.691 613.752 453.625 611.408 449.743C609.088 445.837 607.928 441.398 607.928 436.426V388.273H616.735V435.716C616.735 439.267 617.516 442.428 619.078 445.197C620.641 447.944 622.866 450.11 625.755 451.696C628.667 453.259 632.147 454.04 636.195 454.04C640.243 454.04 643.723 453.259 646.635 451.696C649.547 450.11 651.773 447.944 653.311 445.197C654.874 442.428 655.655 439.267 655.655 435.716V388.273ZM682.049 461V388.273H725.657V396.085H690.856V420.659H722.39V428.472H690.856V461H682.049ZM743.723 388.273L765.314 449.494H766.167L787.757 388.273H796.99L770.286 461H761.195L734.49 388.273H743.723Z" fill="#737370"/>
<rect x="668" y="379" width="64" height="92" fill="#C9EBFB"/>
<rect x="538" y="379" width="68" height="92" fill="#C9EBFB"/>
<rect x="406" y="379" width="68" height="92" fill="#C9EBFB"/>
<rect x="270" y="379" width="68" height="92" fill="#C9EBFB"/>
<rect x="138" y="379" width="68" height="92" fill="#C9EBFB"/>
<rect y="379" width="68" height="92" fill="#C9EBFB"/>
<path d="M12.2781 97H3.0451L29.7496 24.2727H38.8406L65.5451 97H56.3121L34.5792 35.7784H34.011L12.2781 97ZM15.6871 68.5909H52.9031V76.4034H15.6871V68.5909ZM99.8757 74.2727H109.535L117.631 84.9261L119.762 87.767L131.836 103.818H122.177L114.222 93.1648L112.234 90.4659L99.8757 74.2727ZM134.819 60.6364C134.819 68.3068 133.434 74.9356 130.664 80.5227C127.894 86.1098 124.094 90.4186 119.265 93.4489C114.435 96.4792 108.919 97.9943 102.717 97.9943C96.514 97.9943 90.9979 96.4792 86.1683 93.4489C81.3388 90.4186 77.5391 86.1098 74.7692 80.5227C71.9993 74.9356 70.6143 68.3068 70.6143 60.6364C70.6143 52.9659 71.9993 46.3371 74.7692 40.75C77.5391 35.1629 81.3388 30.8542 86.1683 27.8239C90.9979 24.7936 96.514 23.2784 102.717 23.2784C108.919 23.2784 114.435 24.7936 119.265 27.8239C124.094 30.8542 127.894 35.1629 130.664 40.75C133.434 46.3371 134.819 52.9659 134.819 60.6364ZM126.296 60.6364C126.296 54.339 125.243 49.0241 123.136 44.6918C121.052 40.3594 118.223 37.0805 114.648 34.8551C111.097 32.6297 107.12 31.517 102.717 31.517C98.3132 31.517 94.3241 32.6297 90.7493 34.8551C87.1982 37.0805 84.3691 40.3594 82.2621 44.6918C80.1787 49.0241 79.1371 54.339 79.1371 60.6364C79.1371 66.9337 80.1787 72.2486 82.2621 76.581C84.3691 80.9134 87.1982 84.1922 90.7493 86.4176C94.3241 88.643 98.3132 89.7557 102.717 89.7557C107.12 89.7557 111.097 88.643 114.648 86.4176C118.223 84.1922 121.052 80.9134 123.136 76.581C125.243 72.2486 126.296 66.9337 126.296 60.6364ZM149.627 97V24.2727H175.053C180.12 24.2727 184.298 25.1487 187.589 26.9006C190.88 28.6288 193.33 30.9607 194.94 33.8963C196.549 36.8082 197.354 40.0398 197.354 43.5909C197.354 46.7159 196.798 49.2964 195.685 51.3324C194.596 53.3684 193.152 54.9782 191.353 56.1619C189.577 57.3456 187.648 58.2216 185.565 58.7898V59.5C187.79 59.642 190.027 60.4233 192.276 61.8438C194.525 63.2642 196.407 65.3002 197.923 67.9517C199.438 70.6032 200.195 73.8466 200.195 77.6818C200.195 81.3277 199.367 84.6065 197.71 87.5185C196.052 90.4304 193.436 92.7386 189.862 94.4432C186.287 96.1477 181.635 97 175.906 97H149.627ZM158.434 89.1875H175.906C181.658 89.1875 185.742 88.0748 188.157 85.8494C190.595 83.6004 191.815 80.8778 191.815 77.6818C191.815 75.2197 191.187 72.947 189.933 70.8636C188.678 68.7566 186.89 67.0758 184.57 65.821C182.25 64.5426 179.504 63.9034 176.332 63.9034H158.434V89.1875ZM158.434 56.233H174.769C177.421 56.233 179.812 55.7121 181.942 54.6705C184.097 53.6288 185.801 52.161 187.056 50.267C188.335 48.3731 188.974 46.1477 188.974 43.5909C188.974 40.3949 187.861 37.6842 185.636 35.4588C183.41 33.2098 179.883 32.0852 175.053 32.0852H158.434V56.233ZM214.666 97V24.2727H239.24C244.922 24.2727 249.586 25.2434 253.232 27.1847C256.877 29.1023 259.576 31.7419 261.328 35.1037C263.08 38.4654 263.956 42.2888 263.956 46.5739C263.956 50.8589 263.08 54.6586 261.328 57.973C259.576 61.2874 256.889 63.8916 253.267 65.7855C249.645 67.6558 245.017 68.5909 239.382 68.5909H219.496V60.6364H239.098C242.981 60.6364 246.106 60.0682 248.473 58.9318C250.864 57.7955 252.592 56.1856 253.658 54.1023C254.747 51.9953 255.291 49.4858 255.291 46.5739C255.291 43.6619 254.747 41.1169 253.658 38.9389C252.569 36.7609 250.829 35.08 248.438 33.8963C246.046 32.6889 242.886 32.0852 238.956 32.0852H223.473V97H214.666ZM248.899 64.3295L266.797 97H256.57L238.956 64.3295H248.899ZM337.154 47H328.347C327.826 44.4669 326.915 42.2415 325.613 40.3239C324.334 38.4062 322.772 36.7964 320.925 35.4943C319.102 34.1686 317.078 33.1742 314.853 32.5114C312.627 31.8485 310.307 31.517 307.892 31.517C303.489 31.517 299.5 32.6297 295.925 34.8551C292.374 37.0805 289.545 40.3594 287.438 44.6918C285.355 49.0241 284.313 54.339 284.313 60.6364C284.313 66.9337 285.355 72.2486 287.438 76.581C289.545 80.9134 292.374 84.1922 295.925 86.4176C299.5 88.643 303.489 89.7557 307.892 89.7557C310.307 89.7557 312.627 89.4242 314.853 88.7614C317.078 88.0985 319.102 87.116 320.925 85.8139C322.772 84.4882 324.334 82.8665 325.613 80.9489C326.915 79.0076 327.826 76.7822 328.347 74.2727H337.154C336.491 77.9896 335.284 81.3158 333.532 84.2514C331.78 87.187 329.602 89.6847 326.998 91.7443C324.393 93.7803 321.47 95.331 318.226 96.3963C315.007 97.4616 311.562 97.9943 307.892 97.9943C301.69 97.9943 296.174 96.4792 291.344 93.4489C286.515 90.4186 282.715 86.1098 279.945 80.5227C277.175 74.9356 275.79 68.3068 275.79 60.6364C275.79 52.9659 277.175 46.3371 279.945 40.75C282.715 35.1629 286.515 30.8542 291.344 27.8239C296.174 24.7936 301.69 23.2784 307.892 23.2784C311.562 23.2784 315.007 23.8111 318.226 24.8764C321.47 25.9418 324.393 27.5043 326.998 29.5639C329.602 31.5999 331.78 34.0857 333.532 37.0213C335.284 39.9332 336.491 43.2595 337.154 47ZM391.158 42.4545C390.732 38.8561 389.003 36.0625 385.973 34.0739C382.943 32.0852 379.226 31.0909 374.822 31.0909C371.603 31.0909 368.786 31.6117 366.371 32.6534C363.98 33.6951 362.109 35.1274 360.76 36.9503C359.434 38.7732 358.771 40.8447 358.771 43.1648C358.771 45.1061 359.233 46.7751 360.156 48.1719C361.103 49.545 362.311 50.6932 363.778 51.6165C365.246 52.5161 366.785 53.2618 368.395 53.8537C370.005 54.4219 371.484 54.8835 372.834 55.2386L380.22 57.2273C382.114 57.7244 384.221 58.411 386.541 59.2869C388.885 60.1629 391.122 61.3584 393.253 62.8736C395.407 64.3651 397.183 66.2827 398.58 68.6264C399.976 70.9702 400.675 73.8466 400.675 77.2557C400.675 81.1856 399.645 84.7367 397.585 87.9091C395.549 91.0814 392.566 93.6027 388.636 95.473C384.73 97.3433 379.983 98.2784 374.396 98.2784C369.188 98.2784 364.678 97.438 360.866 95.7571C357.079 94.0762 354.096 91.7325 351.918 88.7259C349.763 85.7192 348.544 82.2273 348.26 78.25H357.351C357.588 80.9962 358.511 83.2689 360.121 85.0682C361.754 86.8437 363.814 88.1695 366.3 89.0455C368.809 89.8977 371.508 90.3239 374.396 90.3239C377.758 90.3239 380.777 89.7794 383.452 88.6903C386.127 87.5777 388.246 86.0388 389.808 84.0739C391.371 82.0852 392.152 79.7652 392.152 77.1136C392.152 74.6989 391.477 72.7339 390.128 71.2188C388.778 69.7036 387.003 68.4725 384.801 67.5256C382.599 66.5786 380.22 65.75 377.663 65.0398L368.714 62.483C363.033 60.8494 358.535 58.5175 355.22 55.4872C351.906 52.4569 350.249 48.4915 350.249 43.5909C350.249 39.5189 351.349 35.9678 353.551 32.9375C355.777 29.8835 358.759 27.5161 362.5 25.8352C366.264 24.1307 370.466 23.2784 375.107 23.2784C379.794 23.2784 383.961 24.1188 387.607 25.7997C391.252 27.4569 394.141 29.7296 396.271 32.6179C398.426 35.5062 399.562 38.785 399.68 42.4545H391.158ZM437.598 97H415.154V24.2727H438.592C445.647 24.2727 451.684 25.7287 456.703 28.6406C461.722 31.5289 465.569 35.6837 468.244 41.1051C470.919 46.5028 472.257 52.9659 472.257 60.4943C472.257 68.0701 470.907 74.5923 468.208 80.0611C465.51 85.5062 461.58 89.6965 456.419 92.6321C451.258 95.544 444.984 97 437.598 97ZM423.961 89.1875H437.029C443.043 89.1875 448.026 88.0275 451.98 85.7074C455.933 83.3873 458.881 80.0848 460.822 75.7997C462.763 71.5147 463.734 66.4129 463.734 60.4943C463.734 54.6231 462.775 49.5687 460.858 45.331C458.94 41.0696 456.075 37.8026 452.264 35.5298C448.452 33.2334 443.706 32.0852 438.024 32.0852H423.961V89.1875ZM480.025 32.0852V24.2727H534.57V32.0852H511.701V97H502.894V32.0852H480.025ZM548.162 97V24.2727H592.054V32.0852H556.969V56.6591H589.782V64.4716H556.969V89.1875H592.623V97H548.162ZM655.655 24.2727H664.462V72.4261C664.462 77.3977 663.29 81.8366 660.946 85.7429C658.626 89.6255 655.347 92.6913 651.11 94.9403C646.872 97.1657 641.9 98.2784 636.195 98.2784C630.489 98.2784 625.518 97.1657 621.28 94.9403C617.042 92.6913 613.752 89.6255 611.408 85.7429C609.088 81.8366 607.928 77.3977 607.928 72.4261V24.2727H616.735V71.7159C616.735 75.267 617.516 78.4276 619.078 81.1974C620.641 83.9437 622.866 86.1098 625.755 87.696C628.667 89.2585 632.147 90.0398 636.195 90.0398C640.243 90.0398 643.723 89.2585 646.635 87.696C649.547 86.1098 651.773 83.9437 653.311 81.1974C654.874 78.4276 655.655 75.267 655.655 71.7159V24.2727ZM682.049 97V24.2727H725.657V32.0852H690.856V56.6591H722.39V64.4716H690.856V97H682.049ZM743.723 24.2727L765.314 85.4943H766.167L787.757 24.2727H796.99L770.286 97H761.195L734.49 24.2727H743.723Z" fill="#737370"/>
<rect x="70" y="16" width="68" height="92" fill="#C9EBFB"/>
<rect x="732" y="16" width="68" height="92" fill="#C9EBFB"/>
<rect x="600" y="16" width="68" height="92" fill="#C9EBFB"/>
<rect x="475" y="16" width="68" height="92" fill="#C9EBFB"/>
<rect x="338" y="16" width="68" height="92" fill="#C9EBFB"/>
<rect x="201" y="16" width="68" height="92" fill="#C9EBFB"/>
<line x1="68" y1="59.5" x2="138" y2="59.5" stroke="#737370" stroke-width="5"/>
<line x1="668" y1="422.5" x2="738" y2="422.5" stroke="#737370" stroke-width="5"/>
<line x1="536" y1="422.5" x2="606" y2="422.5" stroke="#737370" stroke-width="5"/>
<line x1="408" y1="422.5" x2="478" y2="422.5" stroke="#737370" stroke-width="5"/>
<line x1="271" y1="422.5" x2="341" y2="422.5" stroke="#737370" stroke-width="5"/>
<line x1="138" y1="422.5" x2="208" y2="422.5" stroke="#737370" stroke-width="5"/>
<line x1="600" y1="58.5" x2="670" y2="58.5" stroke="#737370" stroke-width="5"/>
<line x1="473" y1="58.5" x2="543" y2="58.5" stroke="#737370" stroke-width="5"/>
<line x1="338" y1="59.5" x2="408" y2="59.5" stroke="#737370" stroke-width="5"/>
<line x1="201" y1="58.5" x2="271" y2="58.5" stroke="#737370" stroke-width="5"/>
<path d="M105.956 30.1818V52H103.314V32.9517H103.186L97.8597 36.4886V33.804L103.314 30.1818H105.956Z" fill="#737370"/>
<path d="M710.956 393.182V415H708.314V395.952H708.186L702.86 399.489V396.804L708.314 393.182H710.956Z" fill="#737370"/>
<path d="M578.956 393.182V415H576.314V395.952H576.186L570.86 399.489V396.804L576.314 393.182H578.956Z" fill="#737370"/>
<path d="M442.956 393.182V415H440.314V395.952H440.186L434.86 399.489V396.804L440.314 393.182H442.956Z" fill="#737370"/>
<path d="M306.956 393.182V415H304.314V395.952H304.186L298.86 399.489V396.804L304.314 393.182H306.956Z" fill="#737370"/>
<path d="M175.956 393.182V415H173.314V395.952H173.186L167.86 399.489V396.804L173.314 393.182H175.956Z" fill="#737370"/>
<path d="M637.956 30.1818V52H635.314V32.9517H635.186L629.86 36.4886V33.804L635.314 30.1818H637.956Z" fill="#737370"/>
<path d="M510.956 30.1818V52H508.314V32.9517H508.186L502.86 36.4886V33.804L508.314 30.1818H510.956Z" fill="#737370"/>
<path d="M374.956 30.1818V52H372.314V32.9517H372.186L366.86 36.4886V33.804L372.314 30.1818H374.956Z" fill="#737370"/>
<path d="M237.956 30.1818V52H235.314V32.9517H235.186L229.86 36.4886V33.804L235.314 30.1818H237.956Z" fill="#737370"/>
<path d="M885.768 62.7678C886.744 61.7915 886.744 60.2085 885.768 59.2322L869.858 43.3223C868.882 42.346 867.299 42.346 866.322 43.3223C865.346 44.2986 865.346 45.8816 866.322 46.8579L880.464 61L866.322 75.1421C865.346 76.1184 865.346 77.7014 866.322 78.6777C867.299 79.654 868.882 79.654 869.858 78.6777L885.768 62.7678ZM800 63.5H884V58.5H800V63.5Z" fill="#82D1F5"/>
<path d="M32.7678 106.114C31.7915 105.138 30.2085 105.138 29.2322 106.114L13.3223 122.024C12.346 123.001 12.346 124.584 13.3223 125.56C14.2986 126.536 15.8816 126.536 16.8579 125.56L31 111.418L45.1421 125.56C46.1184 126.536 47.7014 126.536 48.6777 125.56C49.654 124.584 49.654 123.001 48.6777 122.024L32.7678 106.114ZM33.5 182.125L33.5 107.882H28.5L28.5 182.125H33.5Z" fill="#82D1F5"/>
<path d="M1024.77 301.232C1023.79 300.255 1022.21 300.255 1021.23 301.232L1005.32 317.141C1004.35 318.118 1004.35 319.701 1005.32 320.677C1006.3 321.653 1007.88 321.653 1008.86 320.677L1023 306.535L1037.14 320.677C1038.12 321.653 1039.7 321.653 1040.68 320.677C1041.65 319.701 1041.65 318.118 1040.68 317.141L1024.77 301.232ZM1025.5 377.242V302.999H1020.5V377.242H1025.5Z" fill="#82D1F5"/>
<path d="M101.232 379.011C102.209 379.987 103.791 379.987 104.768 379.011L120.678 363.101C121.654 362.124 121.654 360.541 120.678 359.565C119.701 358.589 118.118 358.589 117.142 359.565L103 373.707L88.8579 359.565C87.8816 358.589 86.2986 358.589 85.3223 359.565C84.346 360.541 84.346 362.124 85.3223 363.101L101.232 379.011ZM100.5 303V377.243H105.5V303H100.5Z" fill="#82D1F5"/>
<path d="M930.232 184.011C931.209 184.987 932.791 184.987 933.768 184.011L949.678 168.101C950.654 167.124 950.654 165.541 949.678 164.565C948.701 163.589 947.118 163.589 946.142 164.565L932 178.707L917.858 164.565C916.882 163.589 915.299 163.589 914.322 164.565C913.346 165.541 913.346 167.124 914.322 168.101L930.232 184.011ZM929.5 108V182.243H934.5V108H929.5Z" fill="#82D1F5"/>
<path d="M1568.23 184.011C1569.21 184.987 1570.79 184.987 1571.77 184.011L1587.68 168.101C1588.65 167.124 1588.65 165.541 1587.68 164.565C1586.7 163.589 1585.12 163.589 1584.14 164.565L1570 178.707L1555.86 164.565C1554.88 163.589 1553.3 163.589 1552.32 164.565C1551.35 165.541 1551.35 167.124 1552.32 168.101L1568.23 184.011ZM1567.5 108V182.243H1572.5V108H1567.5Z" fill="#82D1F5"/>
<path d="M1438.23 184.011C1439.21 184.987 1440.79 184.987 1441.77 184.011L1457.68 168.101C1458.65 167.124 1458.65 165.541 1457.68 164.565C1456.7 163.589 1455.12 163.589 1454.14 164.565L1440 178.707L1425.86 164.565C1424.88 163.589 1423.3 163.589 1422.32 164.565C1421.35 165.541 1421.35 167.124 1422.32 168.101L1438.23 184.011ZM1437.5 108V182.243H1442.5V108H1437.5Z" fill="#82D1F5"/>
<path d="M1330.23 184.011C1331.21 184.987 1332.79 184.987 1333.77 184.011L1349.68 168.101C1350.65 167.124 1350.65 165.541 1349.68 164.565C1348.7 163.589 1347.12 163.589 1346.14 164.565L1332 178.707L1317.86 164.565C1316.88 163.589 1315.3 163.589 1314.32 164.565C1313.35 165.541 1313.35 167.124 1314.32 168.101L1330.23 184.011ZM1329.5 108V182.243H1334.5V108H1329.5Z" fill="#82D1F5"/>
<path d="M1217.23 184.011C1218.21 184.987 1219.79 184.987 1220.77 184.011L1236.68 168.101C1237.65 167.124 1237.65 165.541 1236.68 164.565C1235.7 163.589 1234.12 163.589 1233.14 164.565L1219 178.707L1204.86 164.565C1203.88 163.589 1202.3 163.589 1201.32 164.565C1200.35 165.541 1200.35 167.124 1201.32 168.101L1217.23 184.011ZM1216.5 108V182.243H1221.5V108H1216.5Z" fill="#82D1F5"/>
<path d="M1100.23 184.011C1101.21 184.987 1102.79 184.987 1103.77 184.011L1119.68 168.101C1120.65 167.124 1120.65 165.541 1119.68 164.565C1118.7 163.589 1117.12 163.589 1116.14 164.565L1102 178.707L1087.86 164.565C1086.88 163.589 1085.3 163.589 1084.32 164.565C1083.35 165.541 1083.35 167.124 1084.32 168.101L1100.23 184.011ZM1099.5 108V182.243H1104.5V108H1099.5Z" fill="#82D1F5"/>
<path d="M764.232 379.011C765.209 379.987 766.791 379.987 767.768 379.011L783.678 363.101C784.654 362.124 784.654 360.541 783.678 359.565C782.701 358.589 781.118 358.589 780.142 359.565L766 373.707L751.858 359.565C750.882 358.589 749.299 358.589 748.322 359.565C747.346 360.541 747.346 362.124 748.322 363.101L764.232 379.011ZM763.5 303V377.243H768.5V303H763.5Z" fill="#82D1F5"/>
<path d="M633.232 379.011C634.209 379.987 635.791 379.987 636.768 379.011L652.678 363.101C653.654 362.124 653.654 360.541 652.678 359.565C651.701 358.589 650.118 358.589 649.142 359.565L635 373.707L620.858 359.565C619.882 358.589 618.299 358.589 617.322 359.565C616.346 360.541 616.346 362.124 617.322 363.101L633.232 379.011ZM632.5 303V377.243H637.5V303H632.5Z" fill="#82D1F5"/>
<path d="M506.232 379.011C507.209 379.987 508.791 379.987 509.768 379.011L525.678 363.101C526.654 362.124 526.654 360.541 525.678 359.565C524.701 358.589 523.118 358.589 522.142 359.565L508 373.707L493.858 359.565C492.882 358.589 491.299 358.589 490.322 359.565C489.346 360.541 489.346 362.124 490.322 363.101L506.232 379.011ZM505.5 303V377.243H510.5V303H505.5Z" fill="#82D1F5"/>
<path d="M234.232 379.011C235.209 379.987 236.791 379.987 237.768 379.011L253.678 363.101C254.654 362.124 254.654 360.541 253.678 359.565C252.701 358.589 251.118 358.589 250.142 359.565L236 373.707L221.858 359.565C220.882 358.589 219.299 358.589 218.322 359.565C217.346 360.541 217.346 362.124 218.322 363.101L234.232 379.011ZM233.5 303V377.243H238.5V303H233.5Z" fill="#82D1F5"/>
<path d="M370.232 379.011C371.209 379.987 372.791 379.987 373.768 379.011L389.678 363.101C390.654 362.124 390.654 360.541 389.678 359.565C388.701 358.589 387.118 358.589 386.142 359.565L372 373.707L357.858 359.565C356.882 358.589 355.299 358.589 354.322 359.565C353.346 360.541 353.346 362.124 354.322 363.101L370.232 379.011ZM369.5 303V377.243H374.5V303H369.5Z" fill="#82D1F5"/>
<path d="M1633.77 301.232C1632.79 300.255 1631.21 300.255 1630.23 301.232L1614.32 317.141C1613.35 318.118 1613.35 319.701 1614.32 320.677C1615.3 321.653 1616.88 321.653 1617.86 320.677L1632 306.535L1646.14 320.677C1647.12 321.653 1648.7 321.653 1649.68 320.677C1650.65 319.701 1650.65 318.118 1649.68 317.141L1633.77 301.232ZM1634.5 377.242V302.999H1629.5V377.242H1634.5Z" fill="#82D1F5"/>
<path d="M1508.77 301.232C1507.79 300.255 1506.21 300.255 1505.23 301.232L1489.32 317.141C1488.35 318.118 1488.35 319.701 1489.32 320.677C1490.3 321.653 1491.88 321.653 1492.86 320.677L1507 306.535L1521.14 320.677C1522.12 321.653 1523.7 321.653 1524.68 320.677C1525.65 319.701 1525.65 318.118 1524.68 317.141L1508.77 301.232ZM1509.5 377.242V302.999H1504.5V377.242H1509.5Z" fill="#82D1F5"/>
<path d="M1382.77 301.232C1381.79 300.255 1380.21 300.255 1379.23 301.232L1363.32 317.141C1362.35 318.118 1362.35 319.701 1363.32 320.677C1364.3 321.653 1365.88 321.653 1366.86 320.677L1381 306.535L1395.14 320.677C1396.12 321.653 1397.7 321.653 1398.68 320.677C1399.65 319.701 1399.65 318.118 1398.68 317.141L1382.77 301.232ZM1383.5 377.242V302.999H1378.5V377.242H1383.5Z" fill="#82D1F5"/>
<path d="M1263.77 301.232C1262.79 300.255 1261.21 300.255 1260.23 301.232L1244.32 317.141C1243.35 318.118 1243.35 319.701 1244.32 320.677C1245.3 321.653 1246.88 321.653 1247.86 320.677L1262 306.535L1276.14 320.677C1277.12 321.653 1278.7 321.653 1279.68 320.677C1280.65 319.701 1280.65 318.118 1279.68 317.141L1263.77 301.232ZM1264.5 377.242V302.999H1259.5V377.242H1264.5Z" fill="#82D1F5"/>
<path d="M1172.77 301.232C1171.79 300.255 1170.21 300.255 1169.23 301.232L1153.32 317.141C1152.35 318.118 1152.35 319.701 1153.32 320.677C1154.3 321.653 1155.88 321.653 1156.86 320.677L1171 306.535L1185.14 320.677C1186.12 321.653 1187.7 321.653 1188.68 320.677C1189.65 319.701 1189.65 318.118 1188.68 317.141L1172.77 301.232ZM1173.5 377.242V302.999H1168.5V377.242H1173.5Z" fill="#82D1F5"/>
<path d="M701.768 106.232C700.791 105.255 699.209 105.255 698.232 106.232L682.322 122.141C681.346 123.118 681.346 124.701 682.322 125.677C683.299 126.653 684.882 126.653 685.858 125.677L700 111.535L714.142 125.677C715.118 126.653 716.701 126.653 717.678 125.677C718.654 124.701 718.654 123.118 717.678 122.141L701.768 106.232ZM702.5 182.242V107.999H697.5V182.242H702.5Z" fill="#82D1F5"/>
<path d="M569.768 106.232C568.791 105.255 567.209 105.255 566.232 106.232L550.322 122.141C549.346 123.118 549.346 124.701 550.322 125.677C551.299 126.653 552.882 126.653 553.858 125.677L568 111.535L582.142 125.677C583.118 126.653 584.701 126.653 585.678 125.677C586.654 124.701 586.654 123.118 585.678 122.141L569.768 106.232ZM570.5 182.242V107.999H565.5V182.242H570.5Z" fill="#82D1F5"/>
<path d="M441.768 106.232C440.791 105.255 439.209 105.255 438.232 106.232L422.322 122.141C421.346 123.118 421.346 124.701 422.322 125.677C423.299 126.653 424.882 126.653 425.858 125.677L440 111.535L454.142 125.677C455.118 126.653 456.701 126.653 457.678 125.677C458.654 124.701 458.654 123.118 457.678 122.141L441.768 106.232ZM442.5 182.242V107.999H437.5V182.242H442.5Z" fill="#82D1F5"/>
<path d="M32.7678 106.114C31.7915 105.138 30.2085 105.138 29.2322 106.114L13.3223 122.024C12.346 123.001 12.346 124.584 13.3223 125.56C14.2986 126.536 15.8816 126.536 16.8579 125.56L31 111.418L45.1421 125.56C46.1184 126.536 47.7014 126.536 48.6777 125.56C49.654 124.584 49.654 123.001 48.6777 122.024L32.7678 106.114ZM33.5 182.125L33.5 107.882H28.5L28.5 182.125H33.5Z" fill="#82D1F5"/>
<path d="M313.768 106.232C312.791 105.255 311.209 105.255 310.232 106.232L294.322 122.141C293.346 123.118 293.346 124.701 294.322 125.677C295.299 126.653 296.882 126.653 297.858 125.677L312 111.535L326.142 125.677C327.118 126.653 328.701 126.653 329.678 125.677C330.654 124.701 330.654 123.118 329.678 122.141L313.768 106.232ZM314.5 182.242V107.999H309.5V182.242H314.5Z" fill="#82D1F5"/>
<path d="M173.768 106.232C172.791 105.255 171.209 105.255 170.232 106.232L154.322 122.141C153.346 123.118 153.346 124.701 154.322 125.677C155.299 126.653 156.882 126.653 157.858 125.677L172 111.535L186.142 125.677C187.118 126.653 188.701 126.653 189.678 125.677C190.654 124.701 190.654 123.118 189.678 122.141L173.768 106.232ZM174.5 182.242V107.999H169.5V182.242H174.5Z" fill="#82D1F5"/>
<path d="M885.768 426.768C886.744 425.791 886.744 424.209 885.768 423.232L869.858 407.322C868.882 406.346 867.299 406.346 866.322 407.322C865.346 408.299 865.346 409.882 866.322 410.858L880.464 425L866.322 439.142C865.346 440.118 865.346 441.701 866.322 442.678C867.299 443.654 868.882 443.654 869.858 442.678L885.768 426.768ZM800 427.5H884V422.5H800V427.5Z" fill="#82D1F5"/>
<path d="M956.587 229C955.806 226.609 954.776 224.466 953.498 222.572C952.243 220.655 950.74 219.021 948.988 217.672C947.26 216.322 945.295 215.293 943.093 214.582C940.891 213.872 938.476 213.517 935.849 213.517C931.54 213.517 927.622 214.63 924.094 216.855C920.567 219.08 917.761 222.359 915.678 226.692C913.595 231.024 912.553 236.339 912.553 242.636C912.553 248.934 913.607 254.249 915.714 258.581C917.821 262.913 920.673 266.192 924.272 268.418C927.87 270.643 931.919 271.756 936.417 271.756C940.583 271.756 944.253 270.868 947.425 269.092C950.621 267.293 953.107 264.76 954.883 261.493C956.682 258.202 957.582 254.331 957.582 249.881L960.28 250.449H938.405V242.636H966.104V250.449C966.104 256.438 964.826 261.647 962.269 266.074C959.736 270.501 956.232 273.934 951.758 276.372C947.307 278.787 942.193 279.994 936.417 279.994C929.977 279.994 924.319 278.479 919.442 275.449C914.589 272.419 910.801 268.11 908.079 262.523C905.38 256.936 904.03 250.307 904.03 242.636C904.03 236.884 904.8 231.711 906.339 227.118C907.901 222.501 910.103 218.571 912.944 215.328C915.785 212.085 919.146 209.599 923.029 207.871C926.912 206.143 931.185 205.278 935.849 205.278C939.684 205.278 943.259 205.858 946.573 207.018C949.911 208.155 952.882 209.777 955.486 211.884C958.114 213.967 960.304 216.464 962.056 219.376C963.808 222.265 965.015 225.473 965.678 229H956.587ZM994.398 279L974.512 206.273H983.46L998.659 265.506H999.369L1014.85 206.273H1024.8L1040.28 265.506H1040.99L1056.19 206.273H1065.14L1045.25 279H1036.16L1020.11 221.045H1019.54L1003.49 279H994.398ZM1076.11 279V206.273H1084.92V238.659H1123.69V206.273H1132.5V279H1123.69V246.472H1084.92V279H1076.11ZM1154.39 206.273L1173.14 236.528H1173.71L1192.46 206.273H1202.83L1179.96 242.636L1202.83 279H1192.46L1173.71 249.312H1173.14L1154.39 279H1144.03L1167.46 242.636L1144.03 206.273H1154.39ZM1223.1 206.273V279H1214.29V206.273H1223.1ZM1234.51 206.273H1244.59L1264.76 240.222H1265.62L1285.79 206.273H1295.87L1269.59 249.028V279H1260.79V249.028L1234.51 206.273ZM1331.68 206.273H1340.49V258.261C1340.49 262.902 1339.64 266.843 1337.93 270.087C1336.23 273.33 1333.83 275.792 1330.73 277.473C1327.62 279.154 1323.97 279.994 1319.75 279.994C1315.78 279.994 1312.24 279.272 1309.14 277.828C1306.03 276.36 1303.6 274.277 1301.82 271.578C1300.04 268.879 1299.16 265.671 1299.16 261.955H1307.82C1307.82 264.014 1308.33 265.813 1309.35 267.352C1310.39 268.867 1311.81 270.051 1313.61 270.903C1315.41 271.756 1317.46 272.182 1319.75 272.182C1322.29 272.182 1324.44 271.649 1326.22 270.584C1327.99 269.518 1329.34 267.956 1330.26 265.896C1331.21 263.813 1331.68 261.268 1331.68 258.261V206.273ZM1355.73 279V272.608L1394.93 214.085H1355.3V206.273H1405.44V212.665L1366.24 271.188H1405.87V279H1355.73ZM1420.64 279V206.273H1429.45V242.352H1430.3L1462.97 206.273H1474.48L1443.94 239.085L1474.48 279H1463.82L1438.54 245.193L1429.45 255.42V279H1420.64ZM1488.86 279H1479.63L1506.33 206.273H1515.42L1542.13 279H1532.89L1511.16 217.778H1510.59L1488.86 279ZM1492.27 250.591H1529.48V258.403H1492.27V250.591ZM1553.45 279V206.273H1562.26V271.188H1596.07V279H1553.45ZM1609.7 279V206.273H1635.13C1640.2 206.273 1644.37 207.149 1647.66 208.901C1650.96 210.629 1653.41 212.961 1655.02 215.896C1656.63 218.808 1657.43 222.04 1657.43 225.591C1657.43 228.716 1656.87 231.296 1655.76 233.332C1654.67 235.368 1653.23 236.978 1651.43 238.162C1649.65 239.346 1647.72 240.222 1645.64 240.79V241.5C1647.87 241.642 1650.1 242.423 1652.35 243.844C1654.6 245.264 1656.48 247.3 1658 249.952C1659.51 252.603 1660.27 255.847 1660.27 259.682C1660.27 263.328 1659.44 266.607 1657.79 269.518C1656.13 272.43 1653.51 274.739 1649.94 276.443C1646.36 278.148 1641.71 279 1635.98 279H1609.7ZM1618.51 271.188H1635.98C1641.73 271.188 1645.82 270.075 1648.23 267.849C1650.67 265.6 1651.89 262.878 1651.89 259.682C1651.89 257.22 1651.26 254.947 1650.01 252.864C1648.75 250.757 1646.97 249.076 1644.65 247.821C1642.33 246.543 1639.58 245.903 1636.41 245.903H1618.51V271.188ZM1618.51 238.233H1634.85C1637.5 238.233 1639.89 237.712 1642.02 236.67C1644.17 235.629 1645.88 234.161 1647.13 232.267C1648.41 230.373 1649.05 228.148 1649.05 225.591C1649.05 222.395 1647.94 219.684 1645.71 217.459C1643.49 215.21 1639.96 214.085 1635.13 214.085H1618.51V238.233Z" fill="#FA8F00"/>
<path d="M956.587 47C955.806 44.6089 954.776 42.4664 953.498 40.5724C952.243 38.6548 950.74 37.0213 948.988 35.6719C947.26 34.3224 945.295 33.2926 943.093 32.5824C940.891 31.8722 938.476 31.517 935.849 31.517C931.54 31.517 927.622 32.6297 924.094 34.8551C920.567 37.0805 917.761 40.3594 915.678 44.6918C913.595 49.0241 912.553 54.339 912.553 60.6364C912.553 66.9337 913.607 72.2486 915.714 76.581C917.821 80.9134 920.673 84.1922 924.272 86.4176C927.87 88.643 931.919 89.7557 936.417 89.7557C940.583 89.7557 944.253 88.8679 947.425 87.0923C950.621 85.2931 953.107 82.7599 954.883 79.4929C956.682 76.2022 957.582 72.3314 957.582 67.8807L960.28 68.4489H938.405V60.6364H966.104V68.4489C966.104 74.4384 964.826 79.6468 962.269 84.0739C959.736 88.5009 956.232 91.9337 951.758 94.3722C947.307 96.7869 942.193 97.9943 936.417 97.9943C929.977 97.9943 924.319 96.4792 919.442 93.4489C914.589 90.4186 910.801 86.1098 908.079 80.5227C905.38 74.9356 904.03 68.3068 904.03 60.6364C904.03 54.8835 904.8 49.7107 906.339 45.1179C907.901 40.5014 910.103 36.5715 912.944 33.3281C915.785 30.0848 919.146 27.599 923.029 25.8707C926.912 24.1425 931.185 23.2784 935.849 23.2784C939.684 23.2784 943.259 23.8584 946.573 25.0185C949.911 26.1548 952.882 27.7765 955.486 29.8835C958.114 31.9669 960.304 34.4645 962.056 37.3764C963.808 40.2647 965.015 43.4725 965.678 47H956.587ZM994.398 97L974.512 24.2727H983.46L998.659 83.5057H999.369L1014.85 24.2727H1024.8L1040.28 83.5057H1040.99L1056.19 24.2727H1065.14L1045.25 97H1036.16L1020.11 39.0455H1019.54L1003.49 97H994.398ZM1076.11 97V24.2727H1084.92V56.6591H1123.69V24.2727H1132.5V97H1123.69V64.4716H1084.92V97H1076.11ZM1154.39 24.2727L1173.14 54.5284H1173.71L1192.46 24.2727H1202.83L1179.96 60.6364L1202.83 97H1192.46L1173.71 67.3125H1173.14L1154.39 97H1144.03L1167.46 60.6364L1144.03 24.2727H1154.39ZM1223.1 24.2727V97H1214.29V24.2727H1223.1ZM1234.51 24.2727H1244.59L1264.76 58.2216H1265.62L1285.79 24.2727H1295.87L1269.59 67.0284V97H1260.79V67.0284L1234.51 24.2727ZM1331.68 24.2727H1340.49V76.2614C1340.49 80.9015 1339.64 84.8433 1337.93 88.0866C1336.23 91.33 1333.83 93.7921 1330.73 95.473C1327.62 97.1539 1323.97 97.9943 1319.75 97.9943C1315.78 97.9943 1312.24 97.2723 1309.14 95.8281C1306.03 94.3603 1303.6 92.277 1301.82 89.5781C1300.04 86.8793 1299.16 83.6714 1299.16 79.9545H1307.82C1307.82 82.0142 1308.33 83.8134 1309.35 85.3523C1310.39 86.8674 1311.81 88.0511 1313.61 88.9034C1315.41 89.7557 1317.46 90.1818 1319.75 90.1818C1322.29 90.1818 1324.44 89.6491 1326.22 88.5838C1327.99 87.5185 1329.34 85.956 1330.26 83.8963C1331.21 81.813 1331.68 79.268 1331.68 76.2614V24.2727ZM1355.73 97V90.608L1394.93 32.0852H1355.3V24.2727H1405.44V30.6648L1366.24 89.1875H1405.87V97H1355.73ZM1420.64 97V24.2727H1429.45V60.3523H1430.3L1462.97 24.2727H1474.48L1443.94 57.0852L1474.48 97H1463.82L1438.54 63.1932L1429.45 73.4205V97H1420.64ZM1488.86 97H1479.63L1506.33 24.2727H1515.42L1542.13 97H1532.89L1511.16 35.7784H1510.59L1488.86 97ZM1492.27 68.5909H1529.48V76.4034H1492.27V68.5909ZM1553.45 97V24.2727H1562.26V89.1875H1596.07V97H1553.45ZM1609.7 97V24.2727H1635.13C1640.2 24.2727 1644.37 25.1487 1647.66 26.9006C1650.96 28.6288 1653.41 30.9607 1655.02 33.8963C1656.63 36.8082 1657.43 40.0398 1657.43 43.5909C1657.43 46.7159 1656.87 49.2964 1655.76 51.3324C1654.67 53.3684 1653.23 54.9782 1651.43 56.1619C1649.65 57.3456 1647.72 58.2216 1645.64 58.7898V59.5C1647.87 59.642 1650.1 60.4233 1652.35 61.8438C1654.6 63.2642 1656.48 65.3002 1658 67.9517C1659.51 70.6032 1660.27 73.8466 1660.27 77.6818C1660.27 81.3277 1659.44 84.6065 1657.79 87.5185C1656.13 90.4304 1653.51 92.7386 1649.94 94.4432C1646.36 96.1477 1641.71 97 1635.98 97H1609.7ZM1618.51 89.1875H1635.98C1641.73 89.1875 1645.82 88.0748 1648.23 85.8494C1650.67 83.6004 1651.89 80.8778 1651.89 77.6818C1651.89 75.2197 1651.26 72.947 1650.01 70.8636C1648.75 68.7566 1646.97 67.0758 1644.65 65.821C1642.33 64.5426 1639.58 63.9034 1636.41 63.9034H1618.51V89.1875ZM1618.51 56.233H1634.85C1637.5 56.233 1639.89 55.7121 1642.02 54.6705C1644.17 53.6288 1645.88 52.161 1647.13 50.267C1648.41 48.3731 1649.05 46.1477 1649.05 43.5909C1649.05 40.3949 1647.94 37.6842 1645.71 35.4588C1643.49 33.2098 1639.96 32.0852 1635.13 32.0852H1618.51V56.233Z" fill="#737370"/>
<rect x="973" y="16" width="99" height="92" fill="#C9EBFB"/>
<rect x="1137" y="16" width="68" height="92" fill="#C9EBFB"/>
<rect x="1227" y="16" width="68" height="92" fill="#C9EBFB"/>
<rect x="1341" y="16" width="68" height="92" fill="#C9EBFB"/>
<rect x="1474" y="16" width="68" height="92" fill="#C9EBFB"/>
<rect x="1598" y="16" width="68" height="92" fill="#C9EBFB"/>
<path d="M956.587 411C955.806 408.609 954.776 406.466 953.498 404.572C952.243 402.655 950.74 401.021 948.988 399.672C947.26 398.322 945.295 397.293 943.093 396.582C940.891 395.872 938.476 395.517 935.849 395.517C931.54 395.517 927.622 396.63 924.094 398.855C920.567 401.08 917.761 404.359 915.678 408.692C913.595 413.024 912.553 418.339 912.553 424.636C912.553 430.934 913.607 436.249 915.714 440.581C917.821 444.913 920.673 448.192 924.272 450.418C927.87 452.643 931.919 453.756 936.417 453.756C940.583 453.756 944.253 452.868 947.425 451.092C950.621 449.293 953.107 446.76 954.883 443.493C956.682 440.202 957.582 436.331 957.582 431.881L960.28 432.449H938.405V424.636H966.104V432.449C966.104 438.438 964.826 443.647 962.269 448.074C959.736 452.501 956.232 455.934 951.758 458.372C947.307 460.787 942.193 461.994 936.417 461.994C929.977 461.994 924.319 460.479 919.442 457.449C914.589 454.419 910.801 450.11 908.079 444.523C905.38 438.936 904.03 432.307 904.03 424.636C904.03 418.884 904.8 413.711 906.339 409.118C907.901 404.501 910.103 400.571 912.944 397.328C915.785 394.085 919.146 391.599 923.029 389.871C926.912 388.143 931.185 387.278 935.849 387.278C939.684 387.278 943.259 387.858 946.573 389.018C949.911 390.155 952.882 391.777 955.486 393.884C958.114 395.967 960.304 398.464 962.056 401.376C963.808 404.265 965.015 407.473 965.678 411H956.587ZM994.398 461L974.512 388.273H983.46L998.659 447.506H999.369L1014.85 388.273H1024.8L1040.28 447.506H1040.99L1056.19 388.273H1065.14L1045.25 461H1036.16L1020.11 403.045H1019.54L1003.49 461H994.398ZM1076.11 461V388.273H1084.92V420.659H1123.69V388.273H1132.5V461H1123.69V428.472H1084.92V461H1076.11ZM1154.39 388.273L1173.14 418.528H1173.71L1192.46 388.273H1202.83L1179.96 424.636L1202.83 461H1192.46L1173.71 431.312H1173.14L1154.39 461H1144.03L1167.46 424.636L1144.03 388.273H1154.39ZM1223.1 388.273V461H1214.29V388.273H1223.1ZM1234.51 388.273H1244.59L1264.76 422.222H1265.62L1285.79 388.273H1295.87L1269.59 431.028V461H1260.79V431.028L1234.51 388.273ZM1331.68 388.273H1340.49V440.261C1340.49 444.902 1339.64 448.843 1337.93 452.087C1336.23 455.33 1333.83 457.792 1330.73 459.473C1327.62 461.154 1323.97 461.994 1319.75 461.994C1315.78 461.994 1312.24 461.272 1309.14 459.828C1306.03 458.36 1303.6 456.277 1301.82 453.578C1300.04 450.879 1299.16 447.671 1299.16 443.955H1307.82C1307.82 446.014 1308.33 447.813 1309.35 449.352C1310.39 450.867 1311.81 452.051 1313.61 452.903C1315.41 453.756 1317.46 454.182 1319.75 454.182C1322.29 454.182 1324.44 453.649 1326.22 452.584C1327.99 451.518 1329.34 449.956 1330.26 447.896C1331.21 445.813 1331.68 443.268 1331.68 440.261V388.273ZM1355.73 461V454.608L1394.93 396.085H1355.3V388.273H1405.44V394.665L1366.24 453.188H1405.87V461H1355.73ZM1420.64 461V388.273H1429.45V424.352H1430.3L1462.97 388.273H1474.48L1443.94 421.085L1474.48 461H1463.82L1438.54 427.193L1429.45 437.42V461H1420.64ZM1488.86 461H1479.63L1506.33 388.273H1515.42L1542.13 461H1532.89L1511.16 399.778H1510.59L1488.86 461ZM1492.27 432.591H1529.48V440.403H1492.27V432.591ZM1553.45 461V388.273H1562.26V453.188H1596.07V461H1553.45ZM1609.7 461V388.273H1635.13C1640.2 388.273 1644.37 389.149 1647.66 390.901C1650.96 392.629 1653.41 394.961 1655.02 397.896C1656.63 400.808 1657.43 404.04 1657.43 407.591C1657.43 410.716 1656.87 413.296 1655.76 415.332C1654.67 417.368 1653.23 418.978 1651.43 420.162C1649.65 421.346 1647.72 422.222 1645.64 422.79V423.5C1647.87 423.642 1650.1 424.423 1652.35 425.844C1654.6 427.264 1656.48 429.3 1658 431.952C1659.51 434.603 1660.27 437.847 1660.27 441.682C1660.27 445.328 1659.44 448.607 1657.79 451.518C1656.13 454.43 1653.51 456.739 1649.94 458.443C1646.36 460.148 1641.71 461 1635.98 461H1609.7ZM1618.51 453.188H1635.98C1641.73 453.188 1645.82 452.075 1648.23 449.849C1650.67 447.6 1651.89 444.878 1651.89 441.682C1651.89 439.22 1651.26 436.947 1650.01 434.864C1648.75 432.757 1646.97 431.076 1644.65 429.821C1642.33 428.543 1639.58 427.903 1636.41 427.903H1618.51V453.188ZM1618.51 420.233H1634.85C1637.5 420.233 1639.89 419.712 1642.02 418.67C1644.17 417.629 1645.88 416.161 1647.13 414.267C1648.41 412.373 1649.05 410.148 1649.05 407.591C1649.05 404.395 1647.94 401.684 1645.71 399.459C1643.49 397.21 1639.96 396.085 1635.13 396.085H1618.51V420.233Z" fill="#737370"/>
<rect x="898" y="379" width="68" height="92" fill="#C9EBFB"/>
<rect x="1072" y="379" width="68" height="92" fill="#C9EBFB"/>
<rect x="1205" y="372" width="22" height="92" fill="#C9EBFB"/>
<rect x="1295" y="379" width="58" height="92" fill="#C9EBFB"/>
<rect x="1406" y="379" width="68" height="92" fill="#C9EBFB"/>
<rect x="1542" y="379" width="68" height="92" fill="#C9EBFB"/>
<line x1="988" y1="59.5" x2="1058" y2="59.5" stroke="#737370" stroke-width="5"/>
<path d="M1025.96 28.1818V50H1023.31V30.9517H1023.19L1017.86 34.4886V31.804L1023.31 28.1818H1025.96Z" fill="#737370"/>
<line x1="1289" y1="422.5" x2="1359" y2="422.5" stroke="#737370" stroke-width="5"/>
<path d="M1326.96 391.182V413H1324.31V393.952H1324.19L1318.86 397.489V394.804L1324.31 391.182H1326.96Z" fill="#737370"/>
<line x1="1409" y1="422.5" x2="1479" y2="422.5" stroke="#737370" stroke-width="5"/>
<path d="M1446.96 391.182V413H1444.31V393.952H1444.19L1438.86 397.489V394.804L1444.31 391.182H1446.96Z" fill="#737370"/>
<line x1="1535" y1="422.5" x2="1605" y2="422.5" stroke="#737370" stroke-width="5"/>
<path d="M1572.96 391.182V413H1570.31V393.952H1570.19L1564.86 397.489V394.804L1570.31 391.182H1572.96Z" fill="#737370"/>
<line x1="1346" y1="58.5" x2="1416" y2="58.5" stroke="#737370" stroke-width="5"/>
<path d="M1383.96 27.1818V49H1381.31V29.9517H1381.19L1375.86 33.4886V30.804L1381.31 27.1818H1383.96Z" fill="#737370"/>
<line x1="1067" y1="422.5" x2="1137" y2="422.5" stroke="#737370" stroke-width="5"/>
<path d="M1104.96 391.182V413H1102.31V393.952H1102.19L1096.86 397.489V394.804L1102.31 391.182H1104.96Z" fill="#737370"/>
<line x1="1472" y1="59.5" x2="1542" y2="59.5" stroke="#737370" stroke-width="5"/>
<path d="M1509.96 28.1818V50H1507.31V30.9517H1507.19L1501.86 34.4886V31.804L1507.31 28.1818H1509.96Z" fill="#737370"/>
<line x1="1184" y1="422.5" x2="1254" y2="422.5" stroke="#737370" stroke-width="5"/>
<path d="M1221.96 391.182V413H1219.31V393.952H1219.19L1213.86 397.489V394.804L1219.31 391.182H1221.96Z" fill="#737370"/>
<line x1="1137" y1="59.5" x2="1207" y2="59.5" stroke="#737370" stroke-width="5"/>
<path d="M1174.96 28.1818V50H1172.31V30.9517H1172.19L1166.86 34.4886V31.804L1172.31 28.1818H1174.96Z" fill="#737370"/>
<line x1="1227" y1="59.5" x2="1297" y2="59.5" stroke="#737370" stroke-width="5"/>
<path d="M1264.96 28.1818V50H1262.31V30.9517H1262.19L1256.86 34.4886V31.804L1262.31 28.1818H1264.96Z" fill="#737370"/>
</svg>
